<svg xmlns="http://www.w3.org/2000/svg" viewBox="0 0 960 420" role="img" aria-labelledby="title desc">
  <title id="title">Mental health predictor analytics</title>
  <desc id="desc">A calm data science interface showing a wellbeing gauge, model results, and explainability bars.</desc>
  <defs>
    <linearGradient id="bg" x1="0" y1="0" x2="1" y2="1">
      <stop offset="0" stop-color="#667eea"/>
      <stop offset="1" stop-color="#f83d85"/>
    </linearGradient>
    <filter id="shadow" x="-20%" y="-20%" width="140%" height="140%">
      <feDropShadow dx="0" dy="18" stdDeviation="18" flood-color="#312047" flood-opacity=".28"/>
    </filter>
  </defs>
  <rect width="960" height="420" fill="url(#bg)"/>
  <rect x="82" y="66" width="796" height="288" rx="34" fill="#ffffff" opacity=".92" filter="url(#shadow)"/>
  <rect x="126" y="112" width="260" height="196" rx="28" fill="#f8fafc"/>
  <rect x="430" y="112" width="366" height="196" rx="28" fill="#f8fafc"/>
  <path d="M257 162c-39-54-120 4-82 69 21 36 82 71 82 71s61-35 82-71c38-65-43-123-82-69z" fill="#fce7f3"/>
  <path d="M210 224c23-8 39 11 55 0s24-38 49-25" fill="none" stroke="#f83d85" stroke-width="12" stroke-linecap="round" stroke-linejoin="round"/>
  <g stroke-linecap="round">
    <path d="M482 158h244" stroke="#cbd5e1" stroke-width="12"/>
    <path d="M482 158h168" stroke="#667eea" stroke-width="12"/>
    <path d="M482 209h244" stroke="#cbd5e1" stroke-width="12"/>
    <path d="M482 209h212" stroke="#14b8a6" stroke-width="12"/>
    <path d="M482 260h244" stroke="#cbd5e1" stroke-width="12"/>
    <path d="M482 260h126" stroke="#f59e0b" stroke-width="12"/>
  </g>
  <circle cx="772" cy="302" r="38" fill="#eef2ff"/>
  <path d="M754 303l14 14 28-32" fill="none" stroke="#667eea" stroke-width="9" stroke-linecap="round" stroke-linejoin="round"/>
</svg>
