<svg xmlns="http://www.w3.org/2000/svg" viewBox="0 0 960 420" role="img" aria-labelledby="title desc">
  <title id="title">Vehicle rental management</title>
  <desc id="desc">A vehicle rental dashboard with a car, booking calendar, and customer management panels.</desc>
  <defs>
    <linearGradient id="bg" x1="0" y1="0" x2="1" y2="1">
      <stop offset="0" stop-color="#0f766e"/>
      <stop offset="1" stop-color="#f59e0b"/>
    </linearGradient>
    <filter id="shadow" x="-20%" y="-20%" width="140%" height="140%">
      <feDropShadow dx="0" dy="18" stdDeviation="18" flood-color="#1f2937" flood-opacity=".28"/>
    </filter>
  </defs>
  <rect width="960" height="420" fill="url(#bg)"/>
  <rect x="104" y="76" width="752" height="268" rx="34" fill="#ffffff" opacity=".93" filter="url(#shadow)"/>
  <rect x="154" y="124" width="372" height="172" rx="24" fill="#ecfeff"/>
  <path d="M214 228l34-58h168l44 58z" fill="#0f766e"/>
  <rect x="202" y="218" width="286" height="54" rx="24" fill="#14b8a6"/>
  <circle cx="268" cy="272" r="25" fill="#111827"/>
  <circle cx="422" cy="272" r="25" fill="#111827"/>
  <circle cx="268" cy="272" r="10" fill="#e5e7eb"/>
  <circle cx="422" cy="272" r="10" fill="#e5e7eb"/>
  <path d="M274 184h124l22 34H252z" fill="#cffafe"/>
  <rect x="574" y="124" width="226" height="172" rx="24" fill="#f8fafc"/>
  <g fill="#fef3c7">
    <rect x="612" y="162" width="34" height="34" rx="8"/>
    <rect x="662" y="162" width="34" height="34" rx="8"/>
    <rect x="712" y="162" width="34" height="34" rx="8"/>
    <rect x="612" y="214" width="34" height="34" rx="8"/>
    <rect x="662" y="214" width="34" height="34" rx="8"/>
    <rect x="712" y="214" width="34" height="34" rx="8"/>
  </g>
  <path d="M616 130h164" stroke="#64748b" stroke-width="10" stroke-linecap="round"/>
</svg>
