<svg xmlns="http://www.w3.org/2000/svg" viewBox="0 0 960 420" role="img" aria-labelledby="title desc">
  <title id="title">Paddy disease classification</title>
  <desc id="desc">Rice leaves under image classification boxes with a model confidence score.</desc>
  <defs>
    <linearGradient id="bg" x1="0" y1="0" x2="1" y2="1">
      <stop offset="0" stop-color="#16a34a"/>
      <stop offset="1" stop-color="#84cc16"/>
    </linearGradient>
    <filter id="shadow" x="-20%" y="-20%" width="140%" height="140%">
      <feDropShadow dx="0" dy="18" stdDeviation="18" flood-color="#14532d" flood-opacity=".28"/>
    </filter>
  </defs>
  <rect width="960" height="420" fill="url(#bg)"/>
  <rect x="118" y="58" width="724" height="304" rx="34" fill="#ffffff" opacity=".92" filter="url(#shadow)"/>
  <rect x="158" y="96" width="370" height="228" rx="24" fill="#ecfdf5"/>
  <g fill="none" stroke-linecap="round" stroke-linejoin="round">
    <path d="M232 288c84-132 156-156 238-168" stroke="#15803d" stroke-width="12"/>
    <path d="M282 236c-44-18-66-52-68-98 42 8 77 38 94 78" stroke="#22c55e" stroke-width="13"/>
    <path d="M356 186c-22-56-6-100 40-132 24 42 22 88-2 134" stroke="#65a30d" stroke-width="13"/>
    <path d="M410 158c44-36 94-39 134-12-30 38-76 54-126 39" stroke="#4d7c0f" stroke-width="13"/>
  </g>
  <rect x="198" y="128" width="156" height="128" rx="10" fill="none" stroke="#f59e0b" stroke-width="8" stroke-dasharray="16 12"/>
  <rect x="378" y="108" width="132" height="104" rx="10" fill="none" stroke="#ef4444" stroke-width="8" stroke-dasharray="16 12"/>
  <rect x="576" y="110" width="210" height="44" rx="16" fill="#dcfce7"/>
  <rect x="576" y="182" width="210" height="44" rx="16" fill="#fef3c7"/>
  <rect x="576" y="254" width="154" height="44" rx="16" fill="#fee2e2"/>
  <g stroke="#64748b" stroke-width="10" stroke-linecap="round">
    <path d="M604 132h116"/>
    <path d="M604 204h126"/>
    <path d="M604 276h82"/>
  </g>
</svg>
