<svg xmlns="http://www.w3.org/2000/svg" viewBox="0 0 960 420" role="img" aria-labelledby="title desc">
  <title id="title">Greenhouse automation system</title>
  <desc id="desc">A greenhouse monitoring panel with temperature, soil moisture, and automation controls.</desc>
  <defs>
    <linearGradient id="bg" x1="0" y1="0" x2="1" y2="1">
      <stop offset="0" stop-color="#15803d"/>
      <stop offset="1" stop-color="#0ea5e9"/>
    </linearGradient>
    <filter id="shadow" x="-20%" y="-20%" width="140%" height="140%">
      <feDropShadow dx="0" dy="18" stdDeviation="18" flood-color="#064e3b" flood-opacity=".28"/>
    </filter>
  </defs>
  <rect width="960" height="420" fill="url(#bg)"/>
  <rect x="110" y="78" width="740" height="266" rx="34" fill="#ffffff" opacity=".92" filter="url(#shadow)"/>
  <path d="M194 292V176l146-78 146 78v116z" fill="#ecfeff" stroke="#0f766e" stroke-width="12" stroke-linejoin="round"/>
  <path d="M340 102v190M200 182h280M242 154l98 138 98-138" stroke="#99f6e4" stroke-width="9" stroke-linecap="round"/>
  <path d="M294 288c4-62 34-94 84-112 8 56-18 96-84 112z" fill="#22c55e"/>
  <path d="M294 288c-46-26-58-66-38-114 46 22 62 60 38 114z" fill="#16a34a"/>
  <rect x="548" y="122" width="224" height="54" rx="18" fill="#e0f2fe"/>
  <rect x="548" y="206" width="224" height="54" rx="18" fill="#dcfce7"/>
  <g fill="none" stroke-linecap="round" stroke-linejoin="round">
    <path d="M590 148h108" stroke="#0284c7" stroke-width="10"/>
    <path d="M590 232h132" stroke="#16a34a" stroke-width="10"/>
    <path d="M732 135c20 26 20 26 0 52-20-26-20-26 0-52z" stroke="#0284c7" stroke-width="8"/>
    <path d="M728 232c28-34 28-34 56 0-28 34-28 34-56 0z" stroke="#16a34a" stroke-width="8"/>
  </g>
</svg>
