<svg xmlns="http://www.w3.org/2000/svg" viewBox="0 0 960 420" role="img" aria-labelledby="title desc">
  <title id="title">PharmaAI inventory forecasting dashboard</title>
  <desc id="desc">A pharmacy analytics dashboard with medicine stock cards, forecast charts, and inventory indicators.</desc>
  <defs>
    <linearGradient id="bg" x1="0" y1="0" x2="1" y2="1">
      <stop offset="0" stop-color="#667eea"/>
      <stop offset="1" stop-color="#764ba2"/>
    </linearGradient>
    <linearGradient id="panel" x1="0" y1="0" x2="1" y2="1">
      <stop offset="0" stop-color="#ffffff" stop-opacity=".96"/>
      <stop offset="1" stop-color="#eef2ff" stop-opacity=".92"/>
    </linearGradient>
    <filter id="shadow" x="-20%" y="-20%" width="140%" height="140%">
      <feDropShadow dx="0" dy="18" stdDeviation="18" flood-color="#1c143a" flood-opacity=".28"/>
    </filter>
  </defs>
  <rect width="960" height="420" fill="url(#bg)"/>
  <circle cx="790" cy="70" r="128" fill="#ffffff" opacity=".1"/>
  <circle cx="112" cy="365" r="150" fill="#ffffff" opacity=".08"/>
  <g filter="url(#shadow)">
    <rect x="88" y="58" width="784" height="304" rx="30" fill="url(#panel)"/>
    <rect x="124" y="96" width="252" height="226" rx="22" fill="#ffffff"/>
    <rect x="414" y="96" width="322" height="98" rx="22" fill="#f8fafc"/>
    <rect x="414" y="224" width="322" height="98" rx="22" fill="#f8fafc"/>
    <rect x="762" y="96" width="74" height="226" rx="22" fill="#eef2ff"/>
  </g>
  <g fill="none" stroke-linecap="round" stroke-linejoin="round">
    <path d="M172 235c44-8 56-70 98-63s49 61 78 42" stroke="#667eea" stroke-width="12"/>
    <path d="M172 275h156" stroke="#c7d2fe" stroke-width="10"/>
    <path d="M172 139h112" stroke="#1f2937" stroke-width="12"/>
    <path d="M172 164h72" stroke="#94a3b8" stroke-width="9"/>
    <path d="M462 159h230" stroke="#94a3b8" stroke-width="10"/>
    <path d="M462 289h204" stroke="#94a3b8" stroke-width="10"/>
  </g>
  <g>
    <rect x="462" y="123" width="54" height="54" rx="14" fill="#e0f2fe"/>
    <path d="M489 139v22M478 150h22" stroke="#0284c7" stroke-width="8" stroke-linecap="round"/>
    <rect x="462" y="252" width="54" height="54" rx="14" fill="#dcfce7"/>
    <path d="M477 281h24M489 269v24" stroke="#16a34a" stroke-width="8" stroke-linecap="round"/>
    <rect x="780" y="126" width="38" height="166" rx="18" fill="#667eea"/>
    <rect x="789" y="154" width="20" height="98" rx="10" fill="#ffffff" opacity=".88"/>
  </g>
</svg>
